<svg width="283" height="56" viewBox="0 0 283 56" fill="none" xmlns="http://www.w3.org/2000/svg">
<path d="M278.323 43.7693C276.145 43.7693 274.357 42.1495 274.357 39.9153C274.357 37.737 276.145 36.1172 278.323 36.1172C280.501 36.1172 282.345 37.737 282.345 39.9153C282.345 42.1495 280.501 43.7693 278.323 43.7693Z" fill="white"/>
<path d="M277.476 16.3438L260.217 56.0009H253.403L258.765 43.7128L245.639 16.3438H252.565L262.06 36.1165L270.662 16.3438H277.476Z" fill="white"/>
<path d="M244.586 37.0117L245.479 42.5414C242.519 43.4351 241.179 43.6585 238.889 43.6585C232.577 43.6585 228.667 39.4694 228.667 32.655V21.8192H222.635V16.4012H228.667V6.73828H235.09V16.4012H244.865V21.8192H235.09V32.655C235.09 36.1739 236.99 37.682 240.117 37.682C241.57 37.682 243.189 37.4027 244.586 37.0117Z" fill="white"/>
<path d="M216.623 10.7025C214.389 10.7025 212.602 9.02687 212.602 6.84852C212.602 4.55846 214.389 2.88281 216.623 2.88281C218.857 2.88281 220.645 4.55846 220.645 6.84852C220.645 9.02687 218.857 10.7025 216.623 10.7025ZM219.863 16.3997V42.8192H213.439V16.3997H219.863Z" fill="white"/>
<path d="M207.075 3.16016V42.8173H200.596V3.16016H207.075Z" fill="white"/>
<path d="M191.065 10.7025C188.83 10.7025 187.043 9.02687 187.043 6.84852C187.043 4.55846 188.83 2.88281 191.065 2.88281C193.299 2.88281 195.086 4.55846 195.086 6.84852C195.086 9.02687 193.299 10.7025 191.065 10.7025ZM194.304 16.3997V42.8192H187.881V16.3997H194.304Z" fill="white"/>
<path d="M169.759 15.7834C177.132 15.7834 183.052 21.9275 183.052 29.5796C183.052 37.2876 177.132 43.4317 169.759 43.4317C166.575 43.4317 163.838 42.538 161.716 40.9741V42.8173H155.236V3.16016H161.716V18.241C163.838 16.6771 166.575 15.7834 169.759 15.7834ZM168.809 37.8462C173.389 37.8462 176.629 33.9922 176.629 29.5796C176.629 25.2229 173.389 21.3689 168.809 21.3689C166.072 21.3689 163.559 22.3743 161.716 24.9995V34.1597C163.559 36.8408 166.072 37.8462 168.809 37.8462Z" fill="white"/>
<path d="M136.867 15.7852C144.854 15.7852 150.886 21.6499 150.886 29.6372C150.886 37.6804 144.854 43.6569 136.867 43.6569C128.823 43.6569 122.791 37.6804 122.791 29.6372C122.791 21.6499 128.823 15.7852 136.867 15.7852ZM136.867 37.7921C141.391 37.7921 144.463 34.1615 144.463 29.6372C144.463 25.1688 141.391 21.6499 136.867 21.6499C132.286 21.6499 129.214 25.1688 129.214 29.6372C129.214 34.1615 132.286 37.7921 136.867 37.7921Z" fill="white"/>
<path d="M107.249 15.5625C113.729 15.5625 118.756 20.5895 118.756 28.2416V42.8198H112.276V28.6326C112.276 23.9966 109.986 21.4273 105.909 21.4273C103.898 21.4273 101.664 22.3768 99.8208 25.0579C100.044 26.0633 100.156 27.1245 100.156 28.2416V42.8198H93.7326V28.6326C93.7326 23.9966 91.3867 21.4273 87.3651 21.4273C85.466 21.4273 83.3994 22.4885 81.612 24.9462V42.8198H75.1328V16.4003H81.612V18.2435C83.3994 16.5679 85.3543 15.5625 88.7056 15.5625C92.1686 15.5625 95.2407 17.0147 97.3073 19.5841C100.1 16.903 102.893 15.5625 107.249 15.5625Z" fill="white"/>
<path d="M71.0276 29.1904C71.0276 30.1399 71.0276 31.1453 70.8601 32.1507H70.8042H50.5847C51.3666 35.4462 53.8243 37.9596 58.2927 37.9596C60.862 37.9596 62.7052 37.1218 63.6548 35.502H70.5249C69.0168 40.3614 64.1574 43.4334 58.1251 43.4334C49.691 43.4334 44.1055 37.4569 44.1055 29.6372C44.1055 21.7617 49.691 15.7852 58.1251 15.7852C65.4421 15.7852 70.9718 21.259 71.0276 29.1904ZM57.79 21.259C53.6567 21.259 51.2549 23.94 50.5288 27.3472H64.4926C63.9899 23.6049 61.644 21.259 57.79 21.259Z" fill="white"/>
<path fill-rule="evenodd" clip-rule="evenodd" d="M9.23753 27.8549C6.28426 31.5052 6.84932 36.8585 10.4996 39.8118C14.1499 42.765 19.5032 42.2 22.4564 38.5497C22.9369 37.9559 23.8077 37.8639 24.4015 38.3444C24.9953 38.8248 25.0873 39.6956 24.6068 40.2894C20.6927 45.1274 13.5978 45.8763 8.75985 41.9621C3.92192 38.048 3.17302 30.9531 7.08714 26.1152C7.56757 25.5213 8.43841 25.4294 9.03222 25.9098C9.62604 26.3903 9.71796 27.2611 9.23753 27.8549Z" fill="white"/>
<path fill-rule="evenodd" clip-rule="evenodd" d="M27.6277 9.53634C26.375 9.13156 24.9141 9.30178 24.0066 9.61416L23.9083 9.64798L16.3207 11.7406L18.9757 21.3673L26.5633 19.2747L26.665 19.2534C27.6043 19.0564 28.9459 18.4538 29.8141 17.4641C30.5186 16.6608 31.1364 15.3803 30.4838 13.014C29.8312 10.6477 28.6444 9.86484 27.6277 9.53634ZM29.6746 3.20142C32.8699 4.23388 35.6662 6.76465 36.9016 11.244C38.137 15.7234 37.0332 19.3297 34.8189 21.8542C34.1146 22.657 33.3249 23.3217 32.5121 23.865L44.6202 40.0878L39.285 44.0698L26.0408 26.3248L14.3279 29.5551L8.13294 7.09275L21.9474 3.28285C23.8471 2.6514 26.7708 2.26314 29.6746 3.20142Z" fill="white"/>
</svg>
