<svg width="276" height="55" viewBox="0 0 276 55" fill="none" xmlns="http://www.w3.org/2000/svg">
<path d="M272.07 42.7849C269.941 42.7849 268.193 41.2015 268.193 39.0175C268.193 36.8881 269.941 35.3047 272.07 35.3047C274.199 35.3047 276.001 36.8881 276.001 39.0175C276.001 41.2015 274.199 42.7849 272.07 42.7849Z" fill="white"/>
<path d="M271.241 15.9766L254.37 54.7425H247.709L252.95 42.7305L240.119 15.9766H246.89L256.172 35.3049L264.58 15.9766H271.241Z" fill="white"/>
<path d="M239.093 36.1791L239.966 41.5845C237.072 42.4581 235.762 42.6765 233.523 42.6765C227.354 42.6765 223.532 38.5815 223.532 31.9203V21.3279H217.635V16.0317H223.532V6.58594H229.811V16.0317H239.366V21.3279H229.811V31.9203C229.811 35.3601 231.667 36.8343 234.725 36.8343C236.144 36.8343 237.728 36.5613 239.093 36.1791Z" fill="white"/>
<path d="M211.757 10.4604C209.573 10.4604 207.826 8.8224 207.826 6.693C207.826 4.4544 209.573 2.81641 211.757 2.81641C213.941 2.81641 215.689 4.4544 215.689 6.693C215.689 8.8224 213.941 10.4604 211.757 10.4604ZM214.924 16.0296V41.8554H208.645V16.0296H214.924Z" fill="white"/>
<path d="M202.421 3.08984V41.8558H196.088V3.08984H202.421Z" fill="white"/>
<path d="M186.773 10.4604C184.589 10.4604 182.842 8.8224 182.842 6.693C182.842 4.4544 184.589 2.81641 186.773 2.81641C188.957 2.81641 190.704 4.4544 190.704 6.693C190.704 8.8224 188.957 10.4604 186.773 10.4604ZM189.94 16.0296V41.8554H183.661V16.0296H189.94Z" fill="white"/>
<path d="M165.944 15.4294C173.151 15.4294 178.939 21.4354 178.939 28.9156C178.939 36.4504 173.151 42.4564 165.944 42.4564C162.832 42.4564 160.156 41.5828 158.082 40.054V41.8558H151.748V3.08984H158.082V17.8318C160.156 16.303 162.832 15.4294 165.944 15.4294ZM165.016 36.9964C169.493 36.9964 172.66 33.229 172.66 28.9156C172.66 24.6568 169.493 20.8894 165.016 20.8894C162.34 20.8894 159.883 21.8722 158.082 24.4384V33.3928C159.883 36.0136 162.34 36.9964 165.016 36.9964Z" fill="white"/>
<path d="M133.79 15.4297C141.598 15.4297 147.495 21.1627 147.495 28.9705C147.495 36.8329 141.598 42.6751 133.79 42.6751C125.928 42.6751 120.031 36.8329 120.031 28.9705C120.031 21.1627 125.928 15.4297 133.79 15.4297ZM133.79 36.9421C138.213 36.9421 141.216 33.3931 141.216 28.9705C141.216 24.6025 138.213 21.1627 133.79 21.1627C129.313 21.1627 126.31 24.6025 126.31 28.9705C126.31 33.3931 129.313 36.9421 133.79 36.9421Z" fill="white"/>
<path d="M104.84 15.2109C111.174 15.2109 116.088 20.1249 116.088 27.6051V41.8557H109.754V27.9873C109.754 23.4555 107.516 20.9439 103.53 20.9439C101.564 20.9439 99.3803 21.8721 97.5785 24.4929C97.7969 25.4757 97.9061 26.5131 97.9061 27.6051V41.8557H91.6271V27.9873C91.6271 23.4555 89.3339 20.9439 85.4027 20.9439C83.5463 20.9439 81.5261 21.9813 79.7789 24.3837V41.8557H73.4453V16.0299H79.7789V17.8317C81.5261 16.1937 83.4371 15.2109 86.7131 15.2109C90.0983 15.2109 93.1013 16.6305 95.1215 19.1421C97.8515 16.5213 100.581 15.2109 104.84 15.2109Z" fill="white"/>
<path d="M69.4324 28.5337C69.4324 29.4619 69.4324 30.4447 69.2686 31.4275H69.214H49.4488C50.2132 34.6489 52.6156 37.1059 56.9836 37.1059C59.4952 37.1059 61.297 36.2869 62.2252 34.7035H68.941C67.4668 39.4537 62.7166 42.4567 56.8198 42.4567C48.5752 42.4567 43.1152 36.6145 43.1152 28.9705C43.1152 21.2719 48.5752 15.4297 56.8198 15.4297C63.9724 15.4297 69.3778 20.7805 69.4324 28.5337ZM56.4922 20.7805C52.4518 20.7805 50.104 23.4013 49.3942 26.7319H63.0442C62.5528 23.0737 60.2596 20.7805 56.4922 20.7805Z" fill="white"/>
<path fill-rule="evenodd" clip-rule="evenodd" d="M9.02995 27.2275C6.14304 30.7958 6.6954 36.0288 10.2637 38.9157C13.832 41.8026 19.0649 41.2502 21.9518 37.6819C22.4214 37.1015 23.2727 37.0116 23.8532 37.4812C24.4337 37.9509 24.5235 38.8021 24.0539 39.3826C20.2277 44.1118 13.2922 44.8439 8.563 41.0177C3.83379 37.1916 3.10172 30.2561 6.92789 25.5268C7.39751 24.9464 8.24879 24.8565 8.82926 25.3261C9.40973 25.7958 9.49958 26.647 9.02995 27.2275Z" fill="#4690FF"/>
<path fill-rule="evenodd" clip-rule="evenodd" d="M27.0079 9.32485C25.7833 8.92917 24.3552 9.09556 23.4682 9.40092L23.3721 9.43398L15.955 11.4796L18.5503 20.89L25.9674 18.8444L26.0668 18.8236C26.985 18.631 28.2965 18.0419 29.1451 17.0744C29.8339 16.2892 30.4378 15.0375 29.7998 12.7243C29.1619 10.4112 28.0017 9.64597 27.0079 9.32485ZM29.0088 3.13229C32.1323 4.14155 34.8658 6.61545 36.0734 10.9941C37.281 15.3728 36.2021 18.8982 34.0375 21.3659C33.349 22.1507 32.5771 22.8004 31.7826 23.3315L43.6186 39.1898L38.4032 43.0823L25.4566 25.736L14.0069 28.8938L7.95121 6.93617L21.4552 3.21189C23.3122 2.59463 26.1702 2.21509 29.0088 3.13229Z" fill="white"/>
</svg>
